<?xml version="1.0" standalone="no"?><!DOCTYPE svg PUBLIC "-//W3C//DTD SVG 1.1//EN" "http://www.w3.org/Graphics/SVG/1.1/DTD/svg11.dtd"><svg t="1610613505163" class="icon" viewBox="0 0 1024 1024" version="1.1" xmlns="http://www.w3.org/2000/svg" p-id="1815" xmlns:xlink="http://www.w3.org/1999/xlink" width="200" height="200"><defs><style type="text/css"></style></defs><path d="M886.112239 1024H137.863137A78.840904 78.840904 0 0 1 59.136 945.215979V414.205993a78.727137 78.727137 0 0 1 26.223418-58.647167l374.750272-335.614239a78.499602 78.499602 0 0 1 105.121206 0l373.385062 335.614239a78.727137 78.727137 0 0 1 26.166534 58.647167v531.009986A78.840904 78.840904 0 0 1 886.112239 1024zM512.613409 78.876172l-374.750272 335.614239v531.009987h748.249102V414.490411l-373.49883-335.614239zM486.333108 49.524147z" p-id="1816"></path><path d="M580.248211 444.411274l69.625734 69.625734-194.940678 194.940677a39.420452 39.420452 0 0 1-55.68921 0l-13.936524-13.936523a39.420452 39.420452 0 0 1 0-55.68921z" p-id="1817"></path></svg>
